<svg width="973" height="978" viewBox="0 0 973 978" fill="none" xmlns="http://www.w3.org/2000/svg">
<path d="M971 2H2V976H971V884.353H879.681V807.472H677.256V448.523H971V2Z" fill="#FBFCFD" stroke="#818897" stroke-width="3"/>
<rect x="13.1465" y="13.183" width="356.175" height="216.934" fill="#FBFCFD" stroke="#818897" stroke-width="2"/>
<rect x="13.1465" y="242.3" width="356.175" height="216.934" fill="#FBFCFD" stroke="#818897" stroke-width="2"/>
<rect x="688" y="458.178" width="129.906" height="340.147" fill="#F5F6F9" stroke="#818897" stroke-width="2"/>
<path d="M183.624 229.08V149.653H232.328V86.0094M232.328 14.2195V49.8599" stroke="#A6ACB7"/>
<path d="M183.624 458.197V378.769H232.328V315.126M232.328 243.336V278.976" stroke="#A6ACB7"/>
<ellipse cx="228.776" cy="193.949" rx="19.7859" ry="19.8568" fill="#DADEE8"/>
<ellipse cx="228.776" cy="423.065" rx="19.7859" ry="19.8568" fill="#DADEE8"/>
<ellipse cx="278.495" cy="193.949" rx="19.7859" ry="19.8568" fill="#DADEE8"/>
<ellipse cx="278.495" cy="423.065" rx="19.7859" ry="19.8568" fill="#DADEE8"/>
<ellipse cx="330.242" cy="193.949" rx="19.7859" ry="19.8568" fill="#DADEE8"/>
<ellipse cx="330.242" cy="423.065" rx="19.7859" ry="19.8568" fill="#DADEE8"/>
<rect x="446.921" y="102.293" width="41.6157" height="41.7684" fill="#F5F6F9" stroke="#DADEE8"/>
<rect x="446.921" y="244.854" width="41.6157" height="41.7684" fill="#F5F6F9" stroke="#DADEE8"/>
<rect x="446.921" y="304.934" width="41.6157" height="41.7684" fill="#F5F6F9" stroke="#DADEE8"/>
<rect x="593.032" y="102.293" width="41.6157" height="41.7684" fill="#F5F6F9" stroke="#DADEE8"/>
<rect x="593.032" y="244.854" width="41.6157" height="41.7684" fill="#F5F6F9" stroke="#DADEE8"/>
<rect x="593.032" y="304.934" width="41.6157" height="41.7684" fill="#F5F6F9" stroke="#DADEE8"/>
<rect x="495.625" y="102.293" width="41.6157" height="41.7684" fill="#F5F6F9" stroke="#DADEE8"/>
<rect x="495.625" y="244.854" width="41.6157" height="41.7684" fill="#F5F6F9" stroke="#DADEE8"/>
<rect x="495.625" y="304.934" width="41.6157" height="41.7684" fill="#F5F6F9" stroke="#DADEE8"/>
<rect x="544.328" y="102.293" width="41.6157" height="41.7684" fill="#F5F6F9" stroke="#DADEE8"/>
<rect x="544.328" y="244.854" width="41.6157" height="41.7684" fill="#F5F6F9" stroke="#DADEE8"/>
<rect x="544.328" y="304.934" width="41.6157" height="41.7684" fill="#F5F6F9" stroke="#DADEE8"/>
<path d="M634.133 175.11H447.436V204.641H634.133L712.769 282.031H749.297L825.396 131.833L828.44 138.961V337.019H845.182V121.141C843.153 112.315 843.153 103.32 828.44 102.302C813.954 101.299 810.684 118.086 808.654 121.141L736.614 256.574H722.408L634.133 175.11Z" fill="#F5F6F9" stroke="#DADEE8"/>
<rect x="849.741" y="149.135" width="66.9822" height="17.3293" fill="#F5F6F9" stroke="#DADEE8"/>
<rect x="849.741" y="191.903" width="66.9822" height="17.3293" fill="#F5F6F9" stroke="#DADEE8"/>
<rect x="849.741" y="237.726" width="66.9822" height="17.3293" fill="#F5F6F9" stroke="#DADEE8"/>
<rect x="848.726" y="287.623" width="66.9822" height="17.3293" fill="#F5F6F9" stroke="#DADEE8"/>
<rect x="727.982" y="783.533" width="48.7183" height="25.4757" fill="#BEC3CF" stroke="#818897"/>
<rect x="102.951" y="499.428" width="92.3487" height="32.6038" fill="#F5F6F9" stroke="#DADEE8"/>
<line x1="102.451" y1="515.506" x2="162.316" y2="515.506" stroke="#BEC3CF"/>
<rect x="102.951" y="606.349" width="92.3487" height="32.6038" fill="#F5F6F9" stroke="#DADEE8"/>
<line x1="102.451" y1="622.427" x2="162.316" y2="622.427" stroke="#BEC3CF"/>
<rect x="102.951" y="712.252" width="92.3487" height="32.6038" fill="#F5F6F9" stroke="#DADEE8"/>
<line x1="102.451" y1="728.33" x2="162.316" y2="728.33" stroke="#BEC3CF"/>
<rect x="102.951" y="818.155" width="92.3487" height="32.6038" fill="#F5F6F9" stroke="#DADEE8"/>
<line x1="102.451" y1="834.232" x2="162.316" y2="834.232" stroke="#BEC3CF"/>
<rect x="207.461" y="499.428" width="92.3487" height="32.6038" fill="#F5F6F9" stroke="#DADEE8"/>
<line x1="206.961" y1="515.506" x2="266.826" y2="515.506" stroke="#BEC3CF"/>
<rect x="207.461" y="606.349" width="92.3487" height="32.6038" fill="#F5F6F9" stroke="#DADEE8"/>
<line x1="206.961" y1="622.427" x2="266.826" y2="622.427" stroke="#BEC3CF"/>
<rect x="207.461" y="712.252" width="92.3487" height="32.6038" fill="#F5F6F9" stroke="#DADEE8"/>
<line x1="206.961" y1="728.33" x2="266.826" y2="728.33" stroke="#BEC3CF"/>
<rect x="207.5" y="818.155" width="92.3487" height="32.6038" fill="#F5F6F9" stroke="#DADEE8"/>
<line x1="206.961" y1="834.232" x2="266.826" y2="834.232" stroke="#BEC3CF"/>
<rect x="311.971" y="499.428" width="92.3487" height="32.6038" fill="#F5F6F9" stroke="#DADEE8"/>
<line x1="311.471" y1="515.506" x2="371.336" y2="515.506" stroke="#BEC3CF"/>
<rect x="311.971" y="606.349" width="92.3487" height="32.6038" fill="#F5F6F9" stroke="#DADEE8"/>
<line x1="311.471" y1="622.427" x2="371.336" y2="622.427" stroke="#BEC3CF"/>
<rect x="311.971" y="712.252" width="92.3487" height="32.6038" fill="#F5F6F9" stroke="#DADEE8"/>
<line x1="311.471" y1="728.33" x2="371.336" y2="728.33" stroke="#BEC3CF"/>
<rect x="312.5" y="818.155" width="92.3487" height="32.6038" fill="#F5F6F9" stroke="#DADEE8"/>
<line x1="311.471" y1="834.232" x2="371.336" y2="834.232" stroke="#BEC3CF"/>
<rect x="416.481" y="499.428" width="92.3487" height="32.6038" fill="#F5F6F9" stroke="#DADEE8"/>
<line x1="415.981" y1="515.506" x2="475.846" y2="515.506" stroke="#BEC3CF"/>
<rect x="416.481" y="606.349" width="92.3487" height="32.6038" fill="#F5F6F9" stroke="#DADEE8"/>
<line x1="415.981" y1="622.427" x2="475.846" y2="622.427" stroke="#BEC3CF"/>
<rect x="416.481" y="712.252" width="92.3487" height="32.6038" fill="#F5F6F9" stroke="#DADEE8"/>
<line x1="415.981" y1="728.33" x2="475.846" y2="728.33" stroke="#BEC3CF"/>
<rect x="416.5" y="818.155" width="92.3487" height="32.6038" fill="#F5F6F9" stroke="#DADEE8"/>
<line x1="415.981" y1="834.232" x2="475.846" y2="834.232" stroke="#BEC3CF"/>
<path d="M3.51465 494.337H22.645C35.6237 494.337 46.145 504.858 46.145 517.837V846.606C46.145 859.585 35.6237 870.106 22.645 870.106H3.51465V494.337Z" fill="#F5F6F9" stroke="#DADEE8"/>
<path d="M186.153 315.117H213.225C219.576 315.117 224.725 320.266 224.725 326.617V359.641C224.725 365.993 219.576 371.141 213.225 371.141H186.153V315.117Z" fill="#EEF0F4" stroke="#DADEE8"/>
<path d="M186.153 81.9271H213.225C219.576 81.9271 224.725 87.0758 224.725 93.4271V126.452C224.725 132.803 219.576 137.952 213.225 137.952H186.153V81.9271Z" fill="#EEF0F4" stroke="#DADEE8"/>
<ellipse cx="750.312" cy="608.395" rx="19.8568" ry="19.7859" transform="rotate(-90 750.312 608.395)" fill="#DADEE8"/>
<ellipse cx="750.312" cy="558.499" rx="19.8568" ry="19.7859" transform="rotate(-90 750.312 558.499)" fill="#DADEE8"/>
<ellipse cx="750.312" cy="506.566" rx="19.8568" ry="19.7859" transform="rotate(-90 750.312 506.566)" fill="#DADEE8"/>
<rect x="361.69" y="94.1649" width="48.8965" height="11.1759" transform="rotate(-90 361.69 94.1649)" fill="#BEC3CF" stroke="#818897"/>
<rect x="361.69" y="323.281" width="48.8965" height="11.1759" transform="rotate(-90 361.69 323.281)" fill="#BEC3CF" stroke="#818897"/>
<rect x="71.4969" y="279.476" width="62.9236" height="140.543" rx="31.4618" fill="#EEF0F4" stroke="#DADEE8"/>
<rect x="68.4529" y="45.2684" width="62.9236" height="140.543" rx="31.4618" fill="#EEF0F4" stroke="#DADEE8"/>
<path d="M102.951 953.026C102.951 943.776 110.45 936.277 119.701 936.277C128.951 936.277 136.45 943.776 136.45 953.026V965.826H102.951V953.026Z" fill="#F5F6F9" stroke="#EEF0F4"/>
<path d="M407.349 953.026C407.349 943.776 414.848 936.277 424.098 936.277C433.349 936.277 440.848 943.776 440.848 953.026V965.826H407.349V953.026Z" fill="#F5F6F9" stroke="#EEF0F4"/>
<path d="M204.417 953.026C204.417 943.776 211.916 936.277 221.166 936.277C230.417 936.277 237.916 943.776 237.916 953.026V965.826H204.417V953.026Z" fill="#F5F6F9" stroke="#EEF0F4"/>
<path d="M508.815 953.026C508.815 943.776 516.314 936.277 525.564 936.277C534.815 936.277 542.314 943.776 542.314 953.026V965.826H508.815V953.026Z" fill="#F5F6F9" stroke="#EEF0F4"/>
<path d="M305.883 953.026C305.883 943.776 313.382 936.277 322.632 936.277C331.883 936.277 339.382 943.776 339.382 953.026V965.826H305.883V953.026Z" fill="#F5F6F9" stroke="#EEF0F4"/>
<path d="M610.281 953.026C610.281 943.776 617.78 936.277 627.03 936.277C636.281 936.277 643.78 943.776 643.78 953.026V965.826H610.281V953.026Z" fill="#F5F6F9" stroke="#EEF0F4"/>
<path d="M153.684 953.026C153.684 943.776 161.183 936.277 170.434 936.277C179.684 936.277 187.183 943.776 187.183 953.026V965.826H153.684V953.026Z" fill="#F5F6F9" stroke="#EEF0F4"/>
<path d="M458.082 953.026C458.082 943.776 465.581 936.277 474.831 936.277C484.082 936.277 491.581 943.776 491.581 953.026V965.826H458.082V953.026Z" fill="#F5F6F9" stroke="#EEF0F4"/>
<path d="M255.15 953.026C255.15 943.776 262.649 936.277 271.899 936.277C281.15 936.277 288.649 943.776 288.649 953.026V965.826H255.15V953.026Z" fill="#F5F6F9" stroke="#EEF0F4"/>
<path d="M559.548 953.026C559.548 943.776 567.047 936.277 576.297 936.277C585.548 936.277 593.047 943.776 593.047 953.026V965.826H559.548V953.026Z" fill="#F5F6F9" stroke="#EEF0F4"/>
<path d="M356.616 953.026C356.616 943.776 364.115 936.277 373.365 936.277C382.616 936.277 390.115 943.776 390.115 953.026V965.826H356.616V953.026Z" fill="#F5F6F9" stroke="#EEF0F4"/>
<path d="M661.014 953.026C661.014 943.776 668.513 936.277 677.763 936.277C687.014 936.277 694.513 943.776 694.513 953.026V965.826H661.014V953.026Z" fill="#F5F6F9" stroke="#EEF0F4"/>
<path d="M356.631 30.0559C356.631 37.9053 350.268 44.2684 342.418 44.2684C334.569 44.2684 328.206 37.9053 328.206 30.0559L328.206 18.7927L356.631 18.7927L356.631 30.0559Z" fill="#EEF0F4" stroke="#DADEE8"/>
<path d="M358.66 262.227C358.66 270.077 352.297 276.44 344.448 276.44C336.598 276.44 330.235 270.077 330.235 262.227L330.235 250.964L358.66 250.964L358.66 262.227Z" fill="#EEF0F4" stroke="#DADEE8"/>
<path d="M268.356 30.0559C268.355 37.9053 261.992 44.2684 254.143 44.2684C246.294 44.2684 239.93 37.9053 239.93 30.0559L239.93 18.7927L268.356 18.7927L268.356 30.0559Z" fill="#EEF0F4" stroke="#DADEE8"/>
<path d="M270.385 262.227C270.385 270.077 264.022 276.44 256.172 276.44C248.323 276.44 241.96 270.077 241.96 262.227L241.96 250.964L270.385 250.964L270.385 262.227Z" fill="#EEF0F4" stroke="#DADEE8"/>
<path d="M313.001 29.5485C313.001 37.6781 306.41 44.2684 298.281 44.2684C290.151 44.2684 283.561 37.6781 283.561 29.5485L283.561 18.7927L313.001 18.7927L313.001 29.5485Z" fill="#EEF0F4" stroke="#DADEE8"/>
<path d="M315.03 261.72C315.03 269.85 308.44 276.44 300.31 276.44C292.18 276.44 285.59 269.85 285.59 261.72L285.59 250.964L315.03 250.964L315.03 261.72Z" fill="#EEF0F4" stroke="#DADEE8"/>
<line x1="971.5" y1="450" x2="971.5" y2="883" stroke="#BEC3CF"/>
</svg>
